<mxfile host="65bd71144e">
    <diagram id="98u5nMT8LGtWf2Vf1vcR" name="Page-1">
        <mxGraphModel dx="1775" dy="1528" grid="1" gridSize="10" guides="1" tooltips="1" connect="1" arrows="1" fold="1" page="1" pageScale="1" pageWidth="850" pageHeight="1100" math="0" shadow="0">
            <root>
                <mxCell id="0"/>
                <mxCell id="1" parent="0"/>
                <mxCell id="163" value="" style="group" vertex="1" connectable="0" parent="1">
                    <mxGeometry x="80" y="80" width="470" height="237.5" as="geometry"/>
                </mxCell>
                <mxCell id="75" value="" style="group;rotation=90;" vertex="1" connectable="0" parent="163">
                    <mxGeometry x="130" y="100" width="150" height="125" as="geometry"/>
                </mxCell>
                <mxCell id="11" value="ESP32" style="rounded=0;whiteSpace=wrap;html=1;rotation=90;horizontal=0;" vertex="1" parent="75">
                    <mxGeometry y="10" width="150" height="60" as="geometry"/>
                </mxCell>
                <mxCell id="14" value="" style="ellipse;whiteSpace=wrap;html=1;aspect=fixed;rotation=90;" vertex="1" parent="75">
                    <mxGeometry x="105" y="105" width="10" height="10" as="geometry"/>
                </mxCell>
                <mxCell id="15" value="" style="ellipse;whiteSpace=wrap;html=1;aspect=fixed;rotation=90;" vertex="1" parent="75">
                    <mxGeometry x="105" y="95" width="10" height="10" as="geometry"/>
                </mxCell>
                <mxCell id="16" value="" style="ellipse;whiteSpace=wrap;html=1;aspect=fixed;rotation=90;" vertex="1" parent="75">
                    <mxGeometry x="105" y="85" width="10" height="10" as="geometry"/>
                </mxCell>
                <mxCell id="17" value="" style="ellipse;whiteSpace=wrap;html=1;aspect=fixed;rotation=90;" vertex="1" parent="75">
                    <mxGeometry x="105" y="75" width="10" height="10" as="geometry"/>
                </mxCell>
                <mxCell id="18" value="" style="ellipse;whiteSpace=wrap;html=1;aspect=fixed;rotation=90;" vertex="1" parent="75">
                    <mxGeometry x="105" y="65" width="10" height="10" as="geometry"/>
                </mxCell>
                <mxCell id="19" value="" style="ellipse;whiteSpace=wrap;html=1;aspect=fixed;rotation=90;" vertex="1" parent="75">
                    <mxGeometry x="105" y="55" width="10" height="10" as="geometry"/>
                </mxCell>
                <mxCell id="20" value="" style="ellipse;whiteSpace=wrap;html=1;aspect=fixed;rotation=90;" vertex="1" parent="75">
                    <mxGeometry x="105" y="45" width="10" height="10" as="geometry"/>
                </mxCell>
                <mxCell id="21" value="" style="ellipse;whiteSpace=wrap;html=1;aspect=fixed;rotation=90;" vertex="1" parent="75">
                    <mxGeometry x="105" y="35" width="10" height="10" as="geometry"/>
                </mxCell>
                <mxCell id="22" value="" style="ellipse;whiteSpace=wrap;html=1;aspect=fixed;rotation=90;" vertex="1" parent="75">
                    <mxGeometry x="105" y="25" width="10" height="10" as="geometry"/>
                </mxCell>
                <mxCell id="23" value="" style="ellipse;whiteSpace=wrap;html=1;aspect=fixed;rotation=90;" vertex="1" parent="75">
                    <mxGeometry x="105" y="15" width="10" height="10" as="geometry"/>
                </mxCell>
                <mxCell id="24" value="" style="ellipse;whiteSpace=wrap;html=1;aspect=fixed;rotation=90;" vertex="1" parent="75">
                    <mxGeometry x="105" y="5" width="10" height="10" as="geometry"/>
                </mxCell>
                <mxCell id="25" value="" style="ellipse;whiteSpace=wrap;html=1;aspect=fixed;rotation=90;" vertex="1" parent="75">
                    <mxGeometry x="105" y="-5" width="10" height="10" as="geometry"/>
                </mxCell>
                <mxCell id="26" value="" style="ellipse;whiteSpace=wrap;html=1;aspect=fixed;rotation=90;" vertex="1" parent="75">
                    <mxGeometry x="105" y="-15" width="10" height="10" as="geometry"/>
                </mxCell>
                <mxCell id="27" value="" style="ellipse;whiteSpace=wrap;html=1;aspect=fixed;rotation=90;" vertex="1" parent="75">
                    <mxGeometry x="105" y="-25" width="10" height="10" as="geometry"/>
                </mxCell>
                <mxCell id="28" value="" style="ellipse;whiteSpace=wrap;html=1;aspect=fixed;rotation=90;" vertex="1" parent="75">
                    <mxGeometry x="105" y="-35" width="10" height="10" as="geometry"/>
                </mxCell>
                <mxCell id="29" value="" style="ellipse;whiteSpace=wrap;html=1;aspect=fixed;rotation=90;" vertex="1" parent="75">
                    <mxGeometry x="35" y="105" width="10" height="10" as="geometry"/>
                </mxCell>
                <mxCell id="30" value="" style="ellipse;whiteSpace=wrap;html=1;aspect=fixed;rotation=90;" vertex="1" parent="75">
                    <mxGeometry x="35" y="95" width="10" height="10" as="geometry"/>
                </mxCell>
                <mxCell id="31" value="" style="ellipse;whiteSpace=wrap;html=1;aspect=fixed;rotation=90;" vertex="1" parent="75">
                    <mxGeometry x="35" y="85" width="10" height="10" as="geometry"/>
                </mxCell>
                <mxCell id="32" value="" style="ellipse;whiteSpace=wrap;html=1;aspect=fixed;rotation=90;" vertex="1" parent="75">
                    <mxGeometry x="35" y="75" width="10" height="10" as="geometry"/>
                </mxCell>
                <mxCell id="33" value="" style="ellipse;whiteSpace=wrap;html=1;aspect=fixed;rotation=90;" vertex="1" parent="75">
                    <mxGeometry x="35" y="65" width="10" height="10" as="geometry"/>
                </mxCell>
                <mxCell id="35" value="" style="ellipse;whiteSpace=wrap;html=1;aspect=fixed;rotation=90;" vertex="1" parent="75">
                    <mxGeometry x="35" y="55" width="10" height="10" as="geometry"/>
                </mxCell>
                <mxCell id="36" value="" style="ellipse;whiteSpace=wrap;html=1;aspect=fixed;rotation=90;" vertex="1" parent="75">
                    <mxGeometry x="35" y="45" width="10" height="10" as="geometry"/>
                </mxCell>
                <mxCell id="37" value="" style="ellipse;whiteSpace=wrap;html=1;aspect=fixed;rotation=90;" vertex="1" parent="75">
                    <mxGeometry x="35" y="35" width="10" height="10" as="geometry"/>
                </mxCell>
                <mxCell id="38" value="" style="ellipse;whiteSpace=wrap;html=1;aspect=fixed;rotation=90;" vertex="1" parent="75">
                    <mxGeometry x="35" y="25" width="10" height="10" as="geometry"/>
                </mxCell>
                <mxCell id="39" value="" style="ellipse;whiteSpace=wrap;html=1;aspect=fixed;rotation=90;" vertex="1" parent="75">
                    <mxGeometry x="35" y="15" width="10" height="10" as="geometry"/>
                </mxCell>
                <mxCell id="40" value="" style="ellipse;whiteSpace=wrap;html=1;aspect=fixed;rotation=90;" vertex="1" parent="75">
                    <mxGeometry x="35" y="5" width="10" height="10" as="geometry"/>
                </mxCell>
                <mxCell id="41" value="" style="ellipse;whiteSpace=wrap;html=1;aspect=fixed;rotation=90;" vertex="1" parent="75">
                    <mxGeometry x="35" y="-5" width="10" height="10" as="geometry"/>
                </mxCell>
                <mxCell id="42" value="" style="ellipse;whiteSpace=wrap;html=1;aspect=fixed;rotation=90;" vertex="1" parent="75">
                    <mxGeometry x="35" y="-15" width="10" height="10" as="geometry"/>
                </mxCell>
                <mxCell id="43" value="" style="ellipse;whiteSpace=wrap;html=1;aspect=fixed;rotation=90;" vertex="1" parent="75">
                    <mxGeometry x="35" y="-25" width="10" height="10" as="geometry"/>
                </mxCell>
                <mxCell id="44" value="" style="ellipse;whiteSpace=wrap;html=1;aspect=fixed;rotation=90;" vertex="1" parent="75">
                    <mxGeometry x="35" y="-35" width="10" height="10" as="geometry"/>
                </mxCell>
                <mxCell id="76" value="3.3V" style="text;html=1;strokeColor=none;fillColor=none;align=center;verticalAlign=middle;whiteSpace=wrap;rounded=0;fontSize=7;" vertex="1" parent="75">
                    <mxGeometry x="90" y="107.5" width="15" height="5" as="geometry"/>
                </mxCell>
                <mxCell id="110" value="5V" style="text;html=1;strokeColor=none;fillColor=none;align=center;verticalAlign=middle;whiteSpace=wrap;rounded=0;fontSize=7;" vertex="1" parent="75">
                    <mxGeometry x="45" y="106.25" width="15" height="7.5" as="geometry"/>
                </mxCell>
                <mxCell id="161" value="" style="whiteSpace=wrap;html=1;aspect=fixed;fontSize=7;" vertex="1" parent="75">
                    <mxGeometry x="50" y="-25" width="50" height="50" as="geometry"/>
                </mxCell>
                <mxCell id="162" value="" style="html=1;verticalLabelPosition=bottom;align=center;labelBackgroundColor=#ffffff;verticalAlign=top;strokeWidth=2;strokeColor=#0080F0;shadow=0;dashed=0;shape=mxgraph.ios7.icons.wifi;pointerEvents=1;fontSize=7;" vertex="1" parent="75">
                    <mxGeometry x="60.14999999999998" y="-11" width="29.7" height="21" as="geometry"/>
                </mxCell>
                <mxCell id="142" style="edgeStyle=orthogonalEdgeStyle;rounded=0;html=1;exitX=0.25;exitY=1;exitDx=0;exitDy=0;fontSize=7;endArrow=none;endFill=0;fillColor=#e51400;strokeColor=#B20000;" edge="1" parent="163" source="112">
                    <mxGeometry relative="1" as="geometry">
                        <mxPoint y="120.00000000000006" as="targetPoint"/>
                        <Array as="points">
                            <mxPoint x="51" y="120"/>
                        </Array>
                    </mxGeometry>
                </mxCell>
                <mxCell id="112" value="&amp;nbsp;LUZ//LED&amp;nbsp;" style="rounded=1;whiteSpace=wrap;html=1;fontSize=7;" vertex="1" parent="163">
                    <mxGeometry x="40" y="80" width="45" height="20" as="geometry"/>
                </mxCell>
                <mxCell id="133" style="edgeStyle=orthogonalEdgeStyle;rounded=0;html=1;entryX=0.5;entryY=0;entryDx=0;entryDy=0;fontSize=7;endArrow=none;endFill=0;exitX=0.151;exitY=0.003;exitDx=0;exitDy=0;exitPerimeter=0;fillColor=#0050ef;strokeColor=#001DBC;" edge="1" parent="163" source="113" target="16">
                    <mxGeometry relative="1" as="geometry">
                        <Array as="points">
                            <mxPoint x="350" y="115"/>
                            <mxPoint x="350" y="110"/>
                            <mxPoint x="300" y="110"/>
                            <mxPoint x="300" y="190"/>
                        </Array>
                    </mxGeometry>
                </mxCell>
                <mxCell id="113" value="Modulo linha infravermelha 4Canais&amp;nbsp;" style="rounded=1;whiteSpace=wrap;html=1;fontSize=7;" vertex="1" parent="163">
                    <mxGeometry x="340" y="115" width="55" height="40" as="geometry"/>
                </mxCell>
                <mxCell id="115" value="S/ LiV" style="rounded=1;whiteSpace=wrap;html=1;fontSize=7;fillColor=#6d8764;fontColor=#ffffff;strokeColor=#3A5431;" vertex="1" parent="163">
                    <mxGeometry x="440" y="45" width="30" height="20" as="geometry"/>
                </mxCell>
                <mxCell id="116" value="S/ LiV" style="rounded=1;whiteSpace=wrap;html=1;fontSize=7;fillColor=#60a917;fontColor=#ffffff;strokeColor=#2D7600;" vertex="1" parent="163">
                    <mxGeometry x="440" y="95" width="30" height="20" as="geometry"/>
                </mxCell>
                <mxCell id="117" value="S/ LiV" style="rounded=1;whiteSpace=wrap;html=1;fontSize=7;fillColor=#647687;fontColor=#ffffff;strokeColor=#314354;" vertex="1" parent="163">
                    <mxGeometry x="440" y="165" width="30" height="20" as="geometry"/>
                </mxCell>
                <mxCell id="118" value="S/ LiV" style="rounded=1;whiteSpace=wrap;html=1;fontSize=7;fillColor=#0050ef;fontColor=#ffffff;strokeColor=#001DBC;" vertex="1" parent="163">
                    <mxGeometry x="440" y="215" width="30" height="20" as="geometry"/>
                </mxCell>
                <mxCell id="123" style="edgeStyle=orthogonalEdgeStyle;rounded=0;html=1;entryX=0;entryY=0.75;entryDx=0;entryDy=0;fontSize=7;endArrow=none;endFill=0;fillColor=#e51400;strokeColor=#B20000;" edge="1" parent="163" source="29" target="113">
                    <mxGeometry relative="1" as="geometry">
                        <Array as="points">
                            <mxPoint x="140" y="210"/>
                            <mxPoint x="140" y="230"/>
                            <mxPoint x="330" y="230"/>
                            <mxPoint x="330" y="145"/>
                        </Array>
                    </mxGeometry>
                </mxCell>
                <mxCell id="119" style="edgeStyle=orthogonalEdgeStyle;html=1;entryX=0;entryY=0.5;entryDx=0;entryDy=0;fontSize=7;rounded=0;endArrow=none;endFill=0;fillColor=#e3c800;strokeColor=#B09500;" edge="1" parent="163" source="113" target="115">
                    <mxGeometry relative="1" as="geometry"/>
                </mxCell>
                <mxCell id="124" style="edgeStyle=orthogonalEdgeStyle;rounded=0;html=1;entryX=0;entryY=0.25;entryDx=0;entryDy=0;fontSize=7;endArrow=none;endFill=0;" edge="1" parent="163" source="15" target="113">
                    <mxGeometry relative="1" as="geometry">
                        <Array as="points">
                            <mxPoint x="310" y="200"/>
                            <mxPoint x="310" y="125"/>
                        </Array>
                    </mxGeometry>
                </mxCell>
                <mxCell id="120" style="edgeStyle=orthogonalEdgeStyle;rounded=0;html=1;entryX=0;entryY=0.5;entryDx=0;entryDy=0;fontSize=7;endArrow=none;endFill=0;fillColor=#e3c800;strokeColor=#B09500;" edge="1" parent="163" source="113" target="116">
                    <mxGeometry relative="1" as="geometry"/>
                </mxCell>
                <mxCell id="134" style="edgeStyle=orthogonalEdgeStyle;rounded=0;html=1;fontSize=7;endArrow=none;endFill=0;fillColor=#647687;strokeColor=#314354;" edge="1" parent="163" source="17" target="113">
                    <mxGeometry relative="1" as="geometry">
                        <Array as="points">
                            <mxPoint x="290" y="180"/>
                            <mxPoint x="290" y="100"/>
                            <mxPoint x="359" y="100"/>
                        </Array>
                    </mxGeometry>
                </mxCell>
                <mxCell id="121" style="edgeStyle=orthogonalEdgeStyle;rounded=0;html=1;entryX=0;entryY=0.5;entryDx=0;entryDy=0;fontSize=7;endArrow=none;endFill=0;fillColor=#e3c800;strokeColor=#B09500;" edge="1" parent="163" source="113" target="117">
                    <mxGeometry relative="1" as="geometry"/>
                </mxCell>
                <mxCell id="135" style="edgeStyle=orthogonalEdgeStyle;rounded=0;html=1;fontSize=7;endArrow=none;endFill=0;entryX=0.637;entryY=-0.006;entryDx=0;entryDy=0;entryPerimeter=0;fillColor=#60a917;strokeColor=#2D7600;" edge="1" parent="163" source="18" target="113">
                    <mxGeometry relative="1" as="geometry">
                        <mxPoint x="370" y="80" as="targetPoint"/>
                        <Array as="points">
                            <mxPoint x="280" y="170"/>
                            <mxPoint x="280" y="90"/>
                            <mxPoint x="375" y="90"/>
                        </Array>
                    </mxGeometry>
                </mxCell>
                <mxCell id="122" style="edgeStyle=orthogonalEdgeStyle;rounded=0;html=1;entryX=0;entryY=0.5;entryDx=0;entryDy=0;fontSize=7;endArrow=none;endFill=0;fillColor=#e3c800;strokeColor=#B09500;" edge="1" parent="163" source="113" target="118">
                    <mxGeometry relative="1" as="geometry"/>
                </mxCell>
                <mxCell id="136" style="edgeStyle=orthogonalEdgeStyle;rounded=0;html=1;entryX=0.841;entryY=0.008;entryDx=0;entryDy=0;fontSize=7;endArrow=none;endFill=0;entryPerimeter=0;fillColor=#6d8764;strokeColor=#3A5431;" edge="1" parent="163" source="19" target="113">
                    <mxGeometry relative="1" as="geometry">
                        <Array as="points">
                            <mxPoint x="270" y="160"/>
                            <mxPoint x="270" y="80"/>
                            <mxPoint x="386" y="80"/>
                            <mxPoint x="386" y="115"/>
                        </Array>
                    </mxGeometry>
                </mxCell>
                <mxCell id="141" style="edgeStyle=orthogonalEdgeStyle;rounded=0;html=1;entryX=0.75;entryY=1;entryDx=0;entryDy=0;fontSize=7;endArrow=none;endFill=0;exitX=0.7;exitY=1;exitDx=0;exitDy=0;fillColor=#e51400;strokeColor=#B20000;exitPerimeter=0;" edge="1" parent="163" source="145" target="112">
                    <mxGeometry relative="1" as="geometry"/>
                </mxCell>
                <mxCell id="137" value="RELE" style="rounded=1;whiteSpace=wrap;html=1;fontSize=7;" vertex="1" parent="163">
                    <mxGeometry x="40" y="180" width="45" height="40" as="geometry"/>
                </mxCell>
                <mxCell id="138" style="edgeStyle=orthogonalEdgeStyle;rounded=0;html=1;entryX=1;entryY=0.75;entryDx=0;entryDy=0;fontSize=7;endArrow=none;endFill=0;fillColor=#e51400;strokeColor=#B20000;" edge="1" parent="163" source="29" target="137">
                    <mxGeometry relative="1" as="geometry"/>
                </mxCell>
                <mxCell id="139" style="edgeStyle=orthogonalEdgeStyle;rounded=0;html=1;fontSize=7;endArrow=none;endFill=0;" edge="1" parent="163" source="30" target="137">
                    <mxGeometry relative="1" as="geometry"/>
                </mxCell>
                <mxCell id="140" style="edgeStyle=orthogonalEdgeStyle;rounded=0;html=1;entryX=1;entryY=0.25;entryDx=0;entryDy=0;fontSize=7;endArrow=none;endFill=0;fillColor=#6a00ff;strokeColor=#3700CC;" edge="1" parent="163" source="31" target="137">
                    <mxGeometry relative="1" as="geometry"/>
                </mxCell>
                <mxCell id="144" value="Vcc" style="text;html=1;strokeColor=none;fillColor=none;align=center;verticalAlign=middle;whiteSpace=wrap;rounded=0;fontSize=7;" vertex="1" parent="163">
                    <mxGeometry y="120" width="20" height="30" as="geometry"/>
                </mxCell>
                <mxCell id="143" style="edgeStyle=orthogonalEdgeStyle;rounded=0;html=1;fontSize=7;endArrow=none;endFill=0;entryX=0;entryY=1;entryDx=0;entryDy=0;" edge="1" parent="163" source="137" target="144">
                    <mxGeometry relative="1" as="geometry">
                        <mxPoint x="30" y="150" as="targetPoint"/>
                        <Array as="points">
                            <mxPoint x="50" y="150"/>
                        </Array>
                    </mxGeometry>
                </mxCell>
                <mxCell id="146" style="edgeStyle=orthogonalEdgeStyle;rounded=0;html=1;exitX=0.7;exitY=0;exitDx=0;exitDy=0;exitPerimeter=0;entryX=0.75;entryY=0;entryDx=0;entryDy=0;fontSize=7;endArrow=none;endFill=0;" edge="1" parent="163" source="145" target="137">
                    <mxGeometry relative="1" as="geometry"/>
                </mxCell>
                <mxCell id="145" value="" style="verticalLabelPosition=bottom;shadow=0;dashed=0;align=center;html=1;verticalAlign=top;shape=mxgraph.electrical.transistors.npn_transistor_1;fontSize=7;rotation=-180;" vertex="1" parent="163">
                    <mxGeometry x="53" y="122" width="55" height="35" as="geometry"/>
                </mxCell>
                <mxCell id="154" value="" style="group;rotation=90;" vertex="1" connectable="0" parent="163">
                    <mxGeometry x="200" y="-20" width="20" height="80" as="geometry"/>
                </mxCell>
                <mxCell id="148" value="LDR" style="rounded=1;whiteSpace=wrap;html=1;fontSize=7;rotation=90;" vertex="1" parent="154">
                    <mxGeometry x="-32" y="33" width="20" height="15" as="geometry"/>
                </mxCell>
                <mxCell id="151" value="10k" style="pointerEvents=1;verticalLabelPosition=bottom;shadow=0;dashed=0;align=center;html=1;verticalAlign=top;shape=mxgraph.electrical.resistors.resistor_2;fontSize=7;rotation=0;" vertex="1" parent="154">
                    <mxGeometry x="10" y="35.5" width="40" height="10" as="geometry"/>
                </mxCell>
                <mxCell id="153" style="edgeStyle=orthogonalEdgeStyle;rounded=0;html=1;entryX=0;entryY=0.5;entryDx=0;entryDy=0;entryPerimeter=0;fontSize=7;endArrow=none;endFill=0;fillColor=#e6d0de;strokeColor=#996185;gradientColor=#d5739d;" edge="1" parent="154" source="148" target="151">
                    <mxGeometry relative="1" as="geometry"/>
                </mxCell>
                <mxCell id="155" style="edgeStyle=orthogonalEdgeStyle;rounded=0;html=1;entryX=0.5;entryY=1;entryDx=0;entryDy=0;fontSize=7;endArrow=none;endFill=0;fillColor=#e51400;strokeColor=#B20000;" edge="1" parent="163" source="29" target="148">
                    <mxGeometry relative="1" as="geometry">
                        <Array as="points">
                            <mxPoint x="140" y="210"/>
                            <mxPoint x="140" y="21"/>
                        </Array>
                    </mxGeometry>
                </mxCell>
                <mxCell id="158" style="edgeStyle=orthogonalEdgeStyle;rounded=0;html=1;entryX=0.5;entryY=1;entryDx=0;entryDy=0;fontSize=7;endArrow=none;endFill=0;" edge="1" parent="163" source="151" target="30">
                    <mxGeometry relative="1" as="geometry">
                        <Array as="points">
                            <mxPoint x="260" y="20"/>
                            <mxPoint x="260"/>
                            <mxPoint x="130"/>
                            <mxPoint x="130" y="200"/>
                        </Array>
                    </mxGeometry>
                </mxCell>
                <mxCell id="159" style="edgeStyle=orthogonalEdgeStyle;rounded=0;html=1;fontSize=7;endArrow=none;endFill=0;fillColor=#e6d0de;strokeColor=#996185;gradientColor=#d5739d;" edge="1" parent="163" source="44">
                    <mxGeometry relative="1" as="geometry">
                        <mxPoint x="200" y="20" as="targetPoint"/>
                        <Array as="points">
                            <mxPoint x="150" y="70"/>
                            <mxPoint x="150" y="40"/>
                            <mxPoint x="200" y="40"/>
                        </Array>
                    </mxGeometry>
                </mxCell>
                <mxCell id="160" style="edgeStyle=orthogonalEdgeStyle;rounded=0;html=1;entryX=0;entryY=0.5;entryDx=0;entryDy=0;entryPerimeter=0;fontSize=7;endArrow=none;endFill=0;fillColor=#b0e3e6;strokeColor=#0e8088;" edge="1" parent="163" source="37" target="145">
                    <mxGeometry relative="1" as="geometry"/>
                </mxCell>
            </root>
        </mxGraphModel>
    </diagram>
</mxfile>